<?xml version="1.0" encoding="UTF-8"?>
<svg id="Layer_1" xmlns="http://www.w3.org/2000/svg" xmlns:xlink="http://www.w3.org/1999/xlink" version="1.1" viewBox="0 0 1417.3 233.8">
  <!-- Generator: Adobe Illustrator 29.2.1, SVG Export Plug-In . SVG Version: 2.1.0 Build 116)  -->
  <defs>
    <style>
      .st0 {
        fill: url(#linear-gradient);
      }

      .st1 {
        fill: #fff;
      }
    </style>
    <linearGradient id="linear-gradient" x1="770.1" y1="116.9" x2="1411.5" y2="116.9" gradientUnits="userSpaceOnUse">
      <stop offset="0" stop-color="#008e7a"/>
      <stop offset=".3" stop-color="#00ae9d"/>
      <stop offset=".7" stop-color="#76c8ae"/>
      <stop offset="1" stop-color="#b1ded3"/>
    </linearGradient>
  </defs>
  <polygon class="st0" points="766.6 0 766.6 233.8 1282.3 233.8 1417.3 0 766.6 0"/>
  <g>
    <g>
      <path class="st1" d="M467.2,105.8c-10-1.9-23.2-2.8-27.5-8.9-6.4-9.1,1.6-22.4,22.7-21.2,19.1,1.1,21.7,15.8,21.9,21.5h27.5c.4-10.8-4.1-21.9-10.8-29-8.5-8.9-28.6-18.2-53.5-14.5-13.4,1.8-31.2,9.6-37.2,27.1-5.2,16.3,0,31.2,10,39,12.6,9.7,36.3,12.6,46.1,14.5,11.8,2.3,20.5,3.9,19,16.4-1.5,13.1-21.9,16.9-35.4,12.5-9.6-3.1-13.7-10.8-15.6-21.2h-29c0,13.2,7.8,27.1,15.8,33.5,11.8,9.5,25.1,12.8,40.6,12.8s37.1-5.2,47.3-20.3c5.3-7.9,11.1-26,1.8-42.3-8.2-14.1-26.7-17.1-43.8-20.1Z"/>
      <path class="st1" d="M371.4,71.3c-11.8-13.5-32.5-21.2-53.5-17.8-39.4,6.3-49.1,43.6-50.9,55.7-3.3,22.6,3.3,60.5,43.1,75.4,18.6,7,42,4.5,59.8-8.5,10-7.4,20.1-24.1,20.8-34.6h-33.1c-1.1,4.5-3.7,10.4-9.7,14.9-13.4,9.7-28.6,3.3-35.3-1.5-10-7.4-13.7-19.7-13.7-37.1s11.1-38.5,30.3-38.5,28.1,14.9,27.3,27.4h-46.8v23.4h81c2-22-8.3-46.1-19.3-58.7Z"/>
      <path class="st1" d="M645.6,152.5v-40.1c0-6.1-.7-20.7-2.6-30.5-1.3-7-7.4-17.6-19-23.4-10.1-5-17.8-5.9-34.3-5.9-24.7,0-51.3,8.6-52.4,44.2h29.7c0-12.9,8.9-20.5,22.6-20.5s24.7,7.2,22.1,19c-2.6,11.8-24.4,12.3-38.4,14.1-16.2,2.2-37.9,9.7-43.1,32.3-1.9,8.9-.4,25.3,13.4,36,9.3,7.1,19.2,10,32.3,10s30.9-7.3,38.7-14.5c.4,1.9,2.2,8.9,3.7,10.8h31.2c-4.8-9.7-4.1-24.6-4.1-31.6ZM612.2,147.7c-2.7,7.8-10,13.5-23.8,15.3-18.2,2.4-30.6-8.9-22.8-23.4,7.9-14.6,37-9.4,48-20.1,0,3,.5,22.6-1.5,28.2Z"/>
    </g>
    <path class="st1" d="M159.5,191.4c-52.6-18.2-62.4-66.9-49.3-101,13.1-34.1,59-50,90.8-27.2,31.9,22.9,28.5,66.7,28.5,66.7h-81.7v-23.4h47.4s1.3-9.1-6.6-17.8c-10.5-11.6-25.6-11.4-35.4-5.8-12.2,7-20.6,32.1-14.1,54.1,6.5,22,26.6,30.8,45.8,30.8,27.9,0,48.6-19.3,48.7-50.8.1-52.3-35.2-100-88.2-113.4C83.1-12.3,19.5,25.6,3.6,88.2c-15.9,62.6,22,126.1,84.5,142,44.7,11.3,89.8-4.7,117.8-37.6-13.2,3.9-29,4.8-46.4-1.2ZM56.1,131.6c-7.4,0-13.3-6-13.3-13.3s6-13.3,13.3-13.3,13.3,6,13.3,13.3-6,13.3-13.3,13.3Z"/>
  </g>
  <g>
    <rect class="st1" x="983.9" y="109.6" width="40.2" height="13.7" rx="3.5" ry="3.5"/>
    <path class="st1" d="M1051.2,51.2h8.6c1.9,0,3.5,1.6,3.5,3.5v122.7c0,1.9-1.6,3.5-3.5,3.5h-8.6c-1.9,0-3.5-1.6-3.5-3.5V54.6c0-1.9,1.6-3.5,3.5-3.5Z"/>
    <path class="st1" d="M1117.7,87.7c-15,0-25.4,3.8-25.4,3.8-2.2.5-3.5,1.8-3.5,3.8v6.9c0,2,.9,3.5,3.5,2.9,0,0,12.1-2.9,23.9-2.9s16.4,6.6,16.4,17.3v9.7s-12.2-.9-18.6-.9c-19.9,0-30.7,8.6-30.7,27.8s9.9,26.5,27.4,26.5,16.2-3.5,21.9-7.3v2c0,1.9,1.6,3.5,3.5,3.5h8.6c1.9,0,3.5-1.6,3.5-3.5v-57.7c0-21.2-8.9-31.9-30.5-31.9ZM1132.7,162.7c-6,3.1-13.5,6.2-20.1,6.2s-13.7-4.8-13.7-12.8,4.4-14.6,15.5-14.6h18.3v21.2Z"/>
    <path class="st1" d="M1209.3,87.7c-7.8,0-14.8,2.9-20.1,6.2v-39.2c0-1.9-1.6-3.5-3.5-3.5h-8.6c-1.9,0-3.5,1.6-3.5,3.5v122.7c0,1.9,1.6,3.5,3.5,3.5h30.3c21,0,31-10,31-29.2v-32.9c0-19.2-9.3-31-29.2-31ZM1223,151.6c0,9.7-4.9,15.5-17.3,15.5h-16.4v-60.4c5.7-2.7,12.2-5.3,18.3-5.3,11.1,0,15.5,7.7,15.5,17.3v32.9Z"/>
    <path class="st1" d="M950.2,73.9c-10.6-10.6-21.9-13.8-36.4-13.8h-2.1v-5.5c0-1.9-1.6-3.5-3.5-3.5h-8.6c-1.9,0-3.5,1.6-3.5,3.5v5.5h-2.1c-14.6,0-25.9,3.3-36.4,13.8-11.6,11.6-12.6,25.7-12.6,41.1s.9,29.5,12.6,41.2c10.6,10.6,21.9,13.8,36.4,13.8h2.1v7.3c0,1.9,1.6,3.5,3.5,3.5h8.6c1.9,0,3.5-1.6,3.5-3.5v-7.3h2.1c14.6,0,25.9-3.3,36.4-13.8,11.6-11.7,12.6-25.7,12.6-41.2s-.9-29.5-12.6-41.1ZM896.1,154.5h-2.1c-7.1,0-16.2-1-23.2-8.7-8.2-9-8.2-20.1-8.2-30.8s0-21.8,8.2-30.8c7.1-7.7,16.1-8.7,23.2-8.7h2.1v79ZM936.9,145.7c-7.1,7.7-16.1,8.7-23.2,8.7h-2v-79h2c7.1,0,16.2,1,23.2,8.7,8.2,9,8.2,20.1,8.2,30.8s0,21.8-8.2,30.8Z"/>
  </g>
</svg>